{
  "accessors": [
    {
      "bufferView": 2,
      "componentType": 5126,
      "count": 106,
      "max": [
        0.10144899785518646,
        0.14988400042057037,
        1.6828269958496094
      ],
      "min": [
        -0.1188569962978363,
        -0.09164699912071228,
        1.5762979984283447
      ],
      "type": "VEC3"
    },
    {
      "bufferView": 2,
      "byteOffset": 1272,
      "componentType": 5126,
      "count": 106,
      "max": [
        0.9921460151672363,
        0.9946290254592896,
        0.9972285628318787
      ],
      "min": [
        -0.9961022734642029,
        -0.9961978793144226,
        -0.9751622080802917
      ],
      "type": "VEC3"
    },
    {
      "bufferView": 1,
      "componentType": 5126,
      "count": 106,
      "max": [
        0.9962790012359619,
        1.0
      ],
      "min": [
        0.521356999874115,
        0.8476979732513428
      ],
      "type": "VEC2"
    },
    {
      "bufferView": 0,
      "componentType": 5125,
      "count": 462,
      "type": "SCALAR"
    },
    {
      "bufferView": 2,
      "byteOffset": 2544,
      "componentType": 5126,
      "count": 15686,
      "max": [
        0.6788719892501831,
        0.24879999458789825,
        1.6306359767913818
      ],
      "min": [
        -0.6788719892501831,
        -0.16470499336719513,
        -0.0
      ],
      "type": "VEC3"
    },
    {
      "bufferView": 2,
      "byteOffset": 190776,
      "componentType": 5126,
      "count": 15686,
      "max": [
        0.9999221563339233,
        0.9999480247497559,
        0.9999963045120239
      ],
      "min": [
        -0.9997389912605286,
        -0.9999881982803345,
        -1.0
      ],
      "type": "VEC3"
    },
    {
      "bufferView": 1,
      "byteOffset": 848,
      "componentType": 5126,
      "count": 15686,
      "max": [
        0.9827229976654053,
        0.9963449835777283
      ],
      "min": [
        0.0020129999611526728,
        0.00024399999529123306
      ],
      "type": "VEC2"
    },
    {
      "bufferView": 0,
      "byteOffset": 1848,
      "componentType": 5125,
      "count": 63552,
      "type": "SCALAR"
    },
    {
      "bufferView": 2,
      "byteOffset": 379008,
      "componentType": 5126,
      "count": 2728,
      "max": [
        0.10442700237035751,
        0.05825899913907051,
        1.6023379564285278
      ],
      "min": [
        -0.10432100296020508,
        -0.09339900314807892,
        1.363558053970337
      ],
      "type": "VEC3"
    },
    {
      "bufferView": 2,
      "byteOffset": 411744,
      "componentType": 5126,
      "count": 2728,
      "max": [
        0.9960150718688965,
        0.998907744884491,
        0.995762288570404
      ],
      "min": [
        -0.9960131645202637,
        -0.9999371767044067,
        -0.994169294834137
      ],
      "type": "VEC3"
    },
    {
      "bufferView": 1,
      "byteOffset": 126336,
      "componentType": 5126,
      "count": 2728,
      "max": [
        0.9891160130500793,
        0.9962490200996399
      ],
      "min": [
        0.0021800000686198473,
        0.003109999932348728
      ],
      "type": "VEC2"
    },
    {
      "bufferView": 0,
      "byteOffset": 256056,
      "componentType": 5125,
      "count": 13311,
      "type": "SCALAR"
    }
  ],
  "asset": {
    "extras": {
      "author": "nebula075 (https://sketchfab.com/nebula075)",
      "license": "CC-BY-4.0 (http://creativecommons.org/licenses/by/4.0/)",
      "source": "https://sketchfab.com/3d-models/anime-girl-15fa11a22b394f65b5b219eac69c74dd",
      "title": "Anime girl"
    },
    "generator": "Sketchfab-0.3.0",
    "version": "2.0"
  },
  "bufferViews": [
    {
      "buffer": 0,
      "byteLength": 309300,
      "name": "floatBufferViews",
      "target": 34963
    },
    {
      "buffer": 0,
      "byteLength": 148160,
      "byteOffset": 309300,
      "byteStride": 8,
      "name": "floatBufferViews",
      "target": 34962
    },
    {
      "buffer": 0,
      "byteLength": 444480,
      "byteOffset": 457460,
      "byteStride": 12,
      "name": "floatBufferViews",
      "target": 34962
    }
  ],
  "buffers": [
    {
      "byteLength": 901940,
      "uri": "scene.bin"
    }
  ],
  "extensionsUsed": [
    "KHR_materials_unlit"
  ],
  "images": [
    {
      "uri": "textures/Material01_baseColor.png"
    },
    {
      "uri": "textures/N00_000_00_Body_00_SKIN_Instance_baseColor.png"
    },
    {
      "uri": "textures/N00_000_00_FaceMouth_00_FACE_Instance_baseColor.png"
    }
  ],
  "materials": [
    {
      "doubleSided": true,
      "extensions": {
        "KHR_materials_unlit": {}
      },
      "name": "Material01",
      "pbrMetallicRoughness": {
        "baseColorTexture": {
          "index": 0
        },
        "metallicFactor": 0.0
      }
    },
    {
      "alphaCutoff": 0.2,
      "alphaMode": "MASK",
      "doubleSided": true,
      "extensions": {
        "KHR_materials_unlit": {}
      },
      "name": "N00_000_00_Body_00_SKIN_Instance",
      "pbrMetallicRoughness": {
        "baseColorTexture": {
          "index": 1
        },
        "metallicFactor": 0.0
      }
    },
    {
      "alphaCutoff": 0.2,
      "alphaMode": "MASK",
      "doubleSided": true,
      "extensions": {
        "KHR_materials_unlit": {}
      },
      "name": "N00_000_00_FaceMouth_00_FACE_Instance",
      "pbrMetallicRoughness": {
        "baseColorTexture": {
          "index": 2
        },
        "metallicFactor": 0.0
      }
    }
  ],
  "meshes": [
    {
      "name": "Object_0",
      "primitives": [
        {
          "attributes": {
            "NORMAL": 1,
            "POSITION": 0,
            "TEXCOORD_0": 2
          },
          "indices": 3,
          "material": 0,
          "mode": 4
        }
      ]
    },
    {
      "name": "Object_1",
      "primitives": [
        {
          "attributes": {
            "NORMAL": 5,
            "POSITION": 4,
            "TEXCOORD_0": 6
          },
          "indices": 7,
          "material": 1,
          "mode": 4
        }
      ]
    },
    {
      "name": "Object_2",
      "primitives": [
        {
          "attributes": {
            "NORMAL": 9,
            "POSITION": 8,
            "TEXCOORD_0": 10
          },
          "indices": 11,
          "material": 2,
          "mode": 4
        }
      ]
    }
  ],
  "nodes": [
    {
      "children": [
        1
      ],
      "matrix": [
        1.0,
        0.0,
        0.0,
        0.0,
        0.0,
        2.220446049250313e-16,
        -1.0,
        0.0,
        0.0,
        1.0,
        2.220446049250313e-16,
        0.0,
        0.0,
        0.0,
        0.0,
        1.0
      ],
      "name": "Sketchfab_model"
    },
    {
      "children": [
        2,
        3,
        4
      ],
      "name": "2.obj.cleaner.materialmerger.gles"
    },
    {
      "mesh": 0,
      "name": "Object_2"
    },
    {
      "mesh": 1,
      "name": "Object_3"
    },
    {
      "mesh": 2,
      "name": "Object_4"
    }
  ],
  "samplers": [
    {
      "magFilter": 9729,
      "minFilter": 9987,
      "wrapS": 10497,
      "wrapT": 10497
    }
  ],
  "scene": 0,
  "scenes": [
    {
      "name": "Sketchfab_Scene",
      "nodes": [
        0
      ]
    }
  ],
  "textures": [
    {
      "sampler": 0,
      "source": 0
    },
    {
      "sampler": 0,
      "source": 1
    },
    {
      "sampler": 0,
      "source": 2
    }
  ]
}
